<?xml version="1.0" encoding="UTF-8"?>
<svg width="24px" height="24px" viewBox="0 0 24 24" version="1.1" xmlns="http://www.w3.org/2000/svg" xmlns:xlink="http://www.w3.org/1999/xlink">
    <!-- Generator: Sketch 52.5 (67469) - http://www.bohemiancoding.com/sketch -->
    <title>Icon/logout</title>
    <desc>Created with Sketch.</desc>
    <g id="Symbols" stroke="none" stroke-width="1" fill="none" fill-rule="evenodd">
        <g id="Icon/logout" fill="#FFFFFF">
            <g id="noun_Exit_2035174" transform="translate(12.500000, 12.000000) scale(-1, 1) translate(-12.500000, -12.000000) translate(1.000000, 1.000000)">
                <g id="Group">
                    <path d="M20.3736774,0 L11.7156129,0 C10.2924516,0 9.12903226,1.18566372 9.12903226,2.61702655 L9.12903226,4.93014159 C9.12903226,5.28855647 9.41788081,5.57910914 9.77419355,5.57910914 C10.1305063,5.57910914 10.4193548,5.28855647 10.4193548,4.93014159 L10.4193548,2.61702655 C10.421183,1.89525384 10.9979507,1.30823877 11.7154194,1.2979351 L20.3734839,1.2979351 C21.0851613,1.2979351 21.6451613,1.90147493 21.6451613,2.61702655 L21.6451613,19.3987434 C21.649241,19.7403115 21.5182582,20.0695194 21.2810292,20.3139412 C21.0438001,20.558363 20.7197585,20.6979758 20.3801935,20.7020649 L11.7156774,20.7020649 C11.0011346,20.6992923 10.4224669,20.1175003 10.4193548,19.3987434 L10.4193548,17.1338466 C10.4193548,16.7754317 10.1305063,16.4848791 9.77419355,16.4848791 C9.41788081,16.4848791 9.12903226,16.7754317 9.12903226,17.1338466 L9.12903226,19.3987434 C9.13289694,20.8339163 10.2886633,21.9963273 11.7154194,22 L20.3734839,22 C21.0556335,21.9973374 21.708791,21.7221951 22.1892622,21.2351042 C22.6697333,20.7480134 22.9381584,20.0888761 22.9354839,19.4027021 L22.9354839,2.61702655 C22.9354839,1.18566372 21.7966452,0 20.3736774,0 Z" id="Path"></path>
                    <path d="M2.26019355,11.6814159 L15.5290323,11.6814159 C15.885345,11.6814159 16.1741935,11.3908633 16.1741935,11.0324484 C16.1741935,10.6740335 15.885345,10.3834808 15.5290323,10.3834808 L2.11683871,10.3834808 L5.42690323,6.53464897 C5.66024839,6.2616442 5.63146642,5.85052906 5.3623871,5.61311504 C5.09435046,5.37740391 4.68711741,5.40482916 4.45270968,5.67437758 L0.280580645,10.5086018 C0.126709826,10.6357546 0.0400709209,10.8274316 0.0459664966,11.0276542 C0.0518620723,11.2278768 0.149627102,11.4140597 0.310709677,11.5318289 L4.48341935,15.7289617 C4.73536951,15.9823934 5.1438563,15.9823934 5.39580645,15.7289617 C5.51518062,15.6111396 5.58313491,15.450442 5.5847199,15.2822209 C5.58630489,15.1139999 5.52139074,14.9520355 5.40425806,14.8319587 C5.40148387,14.8291032 5.39864516,14.8262478 5.39580645,14.8234572 L2.26019355,11.6814159 Z" id="Path"></path>
                </g>
            </g>
        </g>
    </g>
</svg>