<?xml version="1.0" encoding="UTF-8"?>
<svg width="24px" height="24px" viewBox="0 0 24 24" version="1.1" xmlns="http://www.w3.org/2000/svg" xmlns:xlink="http://www.w3.org/1999/xlink">
    <!-- Generator: Sketch 52.5 (67469) - http://www.bohemiancoding.com/sketch -->
    <title>Icon/map</title>
    <desc>Created with Sketch.</desc>
    <g id="Symbols" stroke="none" stroke-width="1" fill="none" fill-rule="evenodd">
        <g id="Icon/map" fill="#FFFFFF" fill-rule="nonzero">
            <g id="noun_Map_2471443" transform="translate(4.000000, 0.000000)">
                <path d="M16.8998214,8.59139241 C16.9007311,5.04379824 14.6760498,1.87751971 11.3398348,0.678139357 C8.00361984,-0.521241001 4.27413693,0.504495731 2.01900541,3.24168968 C-0.236126113,5.97888362 -0.531390841,9.83823442 1.28107143,12.8870886 C1.41666667,13.1139241 1.56238095,13.3346835 1.71821429,13.5493671 L8.5,23.7812658 L15.4608929,13.2972152 L15.4608929,13.2759494 L15.4791071,13.2486076 C16.4037745,11.8715812 16.8983103,10.2504532 16.8998214,8.59139241 Z M8.5,14.8708861 C5.03451182,14.8708861 2.22517857,12.059461 2.22517857,8.59139241 C2.22517857,5.12332381 5.03451182,2.31189873 8.5,2.31189873 C11.9654882,2.31189873 14.7748214,5.12332381 14.7748214,8.59139241 C14.7748214,10.2568177 14.1137261,11.8540315 12.9369688,13.031665 C11.7602115,14.2092985 10.1641861,14.8708861 8.5,14.8708861 Z" id="Shape"></path>
            </g>
        </g>
    </g>
</svg>