<?xml version="1.0" encoding="UTF-8"?>
<svg width="32px" height="32px" viewBox="0 0 32 32" version="1.1" xmlns="http://www.w3.org/2000/svg" xmlns:xlink="http://www.w3.org/1999/xlink">
    <!-- Generator: Sketch 52.5 (67469) - http://www.bohemiancoding.com/sketch -->
    <title>Icon/profile</title>
    <desc>Created with Sketch.</desc>
    <g id="Symbols" stroke="none" stroke-width="1" fill="none" fill-rule="evenodd">
        <g id="Icon/profile" fill="#FFFFFF">
            <g id="noun_profile_2200069" transform="translate(3.000000, 3.000000)">
                <g id="Group">
                    <path d="M13.0332481,6.45012788 C15.2276215,6.45012788 17.0230179,8.2455243 17.0230179,10.4398977 C17.0230179,12.7007673 15.2276215,14.4961637 13.0332481,14.4961637 C10.7723785,14.4961637 8.9769821,12.7007673 8.9769821,10.4398977 C8.9769821,8.2455243 10.7723785,6.45012788 13.0332481,6.45012788 Z" id="Path"></path>
                    <path d="M13.0332481,0 C20.2148338,0 26,5.8516624 26,13.0332481 C26,20.2148338 20.2148338,26 13.0332481,26 C5.8516624,26 0,20.2148338 0,13.0332481 C0,5.8516624 5.8516624,0 13.0332481,0 Z M13.0332481,1.66240409 C6.7826087,1.66240409 1.66240409,6.7826087 1.66240409,13.0332481 C1.66240409,19.2838875 6.7826087,24.3375959 13.0332481,24.3375959 C19.2838875,24.3375959 24.3375959,19.2838875 24.3375959,13.0332481 C24.3375959,6.7826087 19.2838875,1.66240409 13.0332481,1.66240409 Z" id="Shape" fill-rule="nonzero"></path>
                    <path d="M9.97442455,15.42711 L16.0255754,15.42711 C18.7519182,15.42711 20.2813299,17.6214834 20.2813299,20.1483376 C16.2915601,24.2046036 9.7084399,24.2046036 5.78516624,20.1483376 C5.78516624,17.6214834 7.24808184,15.42711 9.97442455,15.42711 Z" id="Path"></path>
                </g>
            </g>
        </g>
    </g>
</svg>