<?xml version="1.0" encoding="UTF-8"?>
<svg width="88px" height="72px" viewBox="0 0 88 72" version="1.1" xmlns="http://www.w3.org/2000/svg" xmlns:xlink="http://www.w3.org/1999/xlink">
    <!-- Generator: Sketch 52.5 (67469) - http://www.bohemiancoding.com/sketch -->
    <title>Icons/start_game</title>
    <desc>Created with Sketch.</desc>
    <g id="Symbols" stroke="none" stroke-width="1" fill="none" fill-rule="evenodd">
        <g id="Icons/start_game" stroke="#FFFFFF">
            <g id="Group" transform="translate(2.000000, 8.000000)">
                <g id="noun_Arrow_1562285" transform="translate(30.978873, 28.583333) scale(-1, 1) translate(-30.978873, -28.583333) translate(0.000000, 18.666667)" fill="#FFFFFF" stroke-width="1.16666667">
                    <path d="M0.182102018,10.3097368 L10.7010032,18.6533041 C10.9839202,18.9487719 11.4674286,18.9508918 11.7398267,18.6876608 C12.0166807,18.4201901 12.0369882,17.9291813 11.7741595,17.648114 L2.41950627,10.5380994 L61.2271433,10.5380994 C61.6305905,10.5380994 61.9576289,10.2108333 61.9576289,9.80710526 C61.9576289,9.40337719 61.6305905,9.07611111 61.2271433,9.07611111 L2.41950627,9.07611111 L11.7741595,1.96607456 C12.0372074,1.68500731 12.0209906,1.18968567 11.7398267,0.926527778 C11.4588819,0.663369883 11.0067844,0.656864035 10.7010032,0.960884503 L0.182102018,9.30447368 C-0.0957016452,9.64657895 -0.022653088,10.0658772 0.182102018,10.3097368 Z" id="Path"></path>
                </g>
                <ellipse id="Oval" stroke-width="2.33333333" cx="54.943662" cy="28" rx="28.056338" ry="28"></ellipse>
            </g>
        </g>
    </g>
</svg>